Barlow-Bold Condensed.ufo
<glyph name="quotedbl" format="1">
  <advance width="420"/>
  <unicode hex="0022"/>
  <outline>
    <contour>
      <point x="392" y="460" type="line"/>
      <point x="412" y="700" type="line"/>
      <point x="234" y="700" type="line"/>
      <point x="254" y="460" type="line"/>
    </contour>
    <contour>
      <point x="166" y="460" type="line"/>
      <point x="186" y="700" type="line"/>
      <point x="8" y="700" type="line"/>
      <point x="28" y="460" type="line"/>
    </contour>
  </outline>
</glyph>
<glyph name="one" format="1">
  <advance width="307"/>
  <unicode hex="0031"/>
  <outline>
    <contour>
      <point x="287" y="0" type="line"/>
      <point x="287" y="700" type="line"/>
      <point x="99" y="700" type="line"/>
      <point x="99" y="0" type="line"/>
    </contour>
    <contour>
      <point x="99" y="539" type="line"/>
      <point x="99" y="700" type="line"/>
      <point x="22" y="673" type="line"/>
      <point x="22" y="539" type="line"/>
    </contour>
  </outline>
</glyph>
<glyph name="two" format="1">
  <advance width="463"/>
  <unicode hex="0032"/>
  <outline>
    <contour>
      <point x="453" y="0" type="line"/>
      <point x="453" y="161" type="line"/>
      <point x="275" y="161" type="line"/>
      <point x="334" y="236"/>
      <point x="376" y="283"/>
      <point x="404" y="328" type="curve" smooth="yes"/>
      <point x="433" y="375"/>
      <point x="447" y="420"/>
      <point x="447" y="492" type="curve" smooth="yes"/>
      <point x="447" y="652"/>
      <point x="356" y="708"/>
      <point x="236" y="708" type="curve" smooth="yes"/>
      <point x="105" y="708"/>
      <point x="22" y="641"/>
      <point x="14" y="520" type="curve"/>
      <point x="14" y="455" type="line"/>
      <point x="204" y="455" type="line"/>
      <point x="204" y="512" type="line"/>
      <point x="204" y="533"/>
      <point x="215" y="547"/>
      <point x="231" y="547" type="curve" smooth="yes"/>
      <point x="246" y="547"/>
      <point x="257" y="536"/>
      <point x="257" y="504" type="curve" smooth="yes"/>
      <point x="257" y="466"/>
      <point x="239" y="427"/>
      <point x="210" y="385" type="curve" smooth="yes"/>
      <point x="165" y="319"/>
      <point x="92" y="246"/>
      <point x="18" y="161" type="curve"/>
      <point x="18" y="0" type="line"/>
    </contour>
  </outline>
</glyph>
<glyph name="at" format="1">
  <advance width="760"/>
  <unicode hex="0040"/>
  <outline>
    <contour>
      <point x="390" y="-66"/>
      <point x="454" y="-39"/>
      <point x="506" y="-4" type="curve"/>
      <point x="449" y="97" type="line"/>
      <point x="420" y="76"/>
      <point x="387" y="52"/>
      <point x="335" y="52" type="curve" smooth="yes"/>
      <point x="247" y="52"/>
      <point x="129" y="120"/>
      <point x="151" y="297" type="curve" smooth="yes"/>
      <point x="171" y="453"/>
      <point x="283" y="565"/>
      <point x="418" y="565" type="curve" smooth="yes"/>
      <point x="539" y="565"/>
      <point x="625" y="476"/>
      <point x="608" y="337" type="curve" smooth="yes"/>
      <point x="602" y="288"/>
      <point x="584" y="235"/>
      <point x="547" y="235" type="curve" smooth="yes"/>
      <point x="525" y="235"/>
      <point x="501" y="253"/>
      <point x="509" y="311" type="curve" smooth="yes"/>
      <point x="533" y="479" type="line"/>
      <point x="409" y="479" type="line"/>
      <point x="384" y="286" type="line" smooth="yes"/>
      <point x="370" y="179"/>
      <point x="431" y="116"/>
      <point x="529" y="116" type="curve" smooth="yes"/>
      <point x="639" y="116"/>
      <point x="721" y="194"/>
      <point x="739" y="333" type="curve" smooth="yes"/>
      <point x="765" y="537"/>
      <point x="625" y="681"/>
      <point x="429" y="681" type="curve" smooth="yes"/>
      <point x="226" y="681"/>
      <point x="49" y="525"/>
      <point x="22" y="301" type="curve" smooth="yes"/>
      <point x="-6" y="75"/>
      <point x="137" y="-66"/>
      <point x="313" y="-66" type="curve" smooth="yes"/>
    </contour>
    <contour>
      <point x="352" y="118"/>
      <point x="432" y="123"/>
      <point x="432" y="234" type="curve" smooth="yes"/>
      <point x="432" y="239"/>
      <point x="405" y="284"/>
      <point x="407" y="299" type="curve"/>
      <point x="412" y="338"/>
      <point x="407" y="305"/>
      <point x="415" y="362" type="curve" smooth="yes"/>
      <point x="432" y="485"/>
      <point x="363" y="486"/>
      <point x="351" y="486" type="curve" smooth="yes"/>
      <point x="283" y="486"/>
      <point x="245" y="456"/>
      <point x="229" y="362" type="curve" smooth="yes"/>
      <point x="228" y="357"/>
      <point x="224" y="330"/>
      <point x="222" y="310" type="curve" smooth="yes"/>
      <point x="220" y="286"/>
      <point x="217" y="261"/>
      <point x="216" y="241" type="curve" smooth="yes"/>
      <point x="214" y="201"/>
      <point x="232" y="118"/>
      <point x="328" y="118" type="curve" smooth="yes"/>
    </contour>
    <contour>
      <point x="342" y="217"/>
      <point x="336" y="227"/>
      <point x="337" y="242" type="curve" smooth="yes"/>
      <point x="338" y="248"/>
      <point x="341" y="271"/>
      <point x="344" y="295" type="curve" smooth="yes"/>
      <point x="347" y="318"/>
      <point x="350" y="342"/>
      <point x="352" y="355" type="curve" smooth="yes"/>
      <point x="354" y="369"/>
      <point x="362" y="379"/>
      <point x="375" y="379" type="curve" smooth="yes"/>
      <point x="387" y="379"/>
      <point x="393" y="369"/>
      <point x="391" y="355" type="curve" smooth="yes"/>
      <point x="390" y="348"/>
      <point x="387" y="327"/>
      <point x="384" y="302" type="curve" smooth="yes"/>
      <point x="381" y="280"/>
      <point x="379" y="256"/>
      <point x="377" y="242" type="curve" smooth="yes"/>
      <point x="375" y="227"/>
      <point x="367" y="217"/>
      <point x="355" y="217" type="curve" smooth="yes"/>
    </contour>
  </outline>
</glyph>
<glyph name="N" format="1">
  <advance width="528"/>
  <unicode hex="004E"/>
  <outline>
    <contour>
      <point x="212" y="0" type="line"/>
      <point x="210" y="346" type="line"/>
      <point x="296" y="0" type="line"/>
      <point x="502" y="0" type="line"/>
      <point x="502" y="700" type="line"/>
      <point x="316" y="700" type="line"/>
      <point x="317" y="356" type="line"/>
      <point x="230" y="700" type="line"/>
      <point x="26" y="700" type="line"/>
      <point x="26" y="0" type="line"/>
    </contour>
    <contour>
      <point x="262" y="713" type="move" name="top"/>
    </contour>
    <contour>
      <point x="274" y="0" type="move" name="bottom"/>
    </contour>
  </outline>
</glyph>
<glyph name="O" format="1">
  <advance width="484"/>
  <unicode hex="004F"/>
  <outline>
    <contour>
      <point x="376" y="-8"/>
      <point x="464" y="75"/>
      <point x="464" y="206" type="curve" smooth="yes"/>
      <point x="464" y="494" type="line" smooth="yes"/>
      <point x="464" y="625"/>
      <point x="376" y="708"/>
      <point x="242" y="708" type="curve" smooth="yes"/>
      <point x="107" y="708"/>
      <point x="20" y="625"/>
      <point x="20" y="494" type="curve" smooth="yes"/>
      <point x="20" y="206" type="line" smooth="yes"/>
      <point x="20" y="75"/>
      <point x="107" y="-8"/>
      <point x="242" y="-8" type="curve" smooth="yes"/>
    </contour>
    <contour>
      <point x="220" y="153"/>
      <point x="208" y="171"/>
      <point x="208" y="198" type="curve" smooth="yes"/>
      <point x="208" y="502" type="line" smooth="yes"/>
      <point x="208" y="529"/>
      <point x="220" y="547"/>
      <point x="242" y="547" type="curve" smooth="yes"/>
      <point x="264" y="547"/>
      <point x="276" y="529"/>
      <point x="276" y="502" type="curve" smooth="yes"/>
      <point x="276" y="198" type="line" smooth="yes"/>
      <point x="276" y="171"/>
      <point x="264" y="153"/>
      <point x="242" y="153" type="curve" smooth="yes"/>
    </contour>
    <contour>
      <point x="242" y="708" type="move" name="top"/>
    </contour>
  </outline>
</glyph>
<glyph name="Z" format="1">
  <advance width="424"/>
  <unicode hex="005A"/>
  <outline>
    <contour>
      <point x="410" y="0" type="line"/>
      <point x="410" y="161" type="line"/>
      <point x="208" y="161" type="line"/>
      <point x="410" y="539" type="line"/>
      <point x="410" y="700" type="line"/>
      <point x="12" y="700" type="line"/>
      <point x="12" y="539" type="line"/>
      <point x="212" y="539" type="line"/>
      <point x="12" y="161" type="line"/>
      <point x="12" y="0" type="line"/>
    </contour>
    <contour>
      <point x="210" y="713" type="move" name="top"/>
    </contour>
  </outline>
</glyph>
<glyph name="bracketleft" format="1">
  <advance width="373"/>
  <unicode hex="005B"/>
  <outline>
    <contour>
      <point x="293" y="-164" type="line"/>
      <point x="293" y="-3" type="line"/>
      <point x="218" y="-3" type="line"/>
      <point x="218" y="657" type="line"/>
      <point x="293" y="657" type="line"/>
      <point x="293" y="818" type="line"/>
      <point x="30" y="818" type="line"/>
      <point x="30" y="-164" type="line"/>
    </contour>
  </outline>
</glyph>
<glyph name="r" format="1">
  <advance width="346"/>
  <unicode hex="0072"/>
  <outline>
    <contour>
      <point x="210" y="1" type="line"/>
      <point x="210" y="520" type="line"/>
      <point x="22" y="520" type="line"/>
      <point x="22" y="1" type="line"/>
    </contour>
    <contour>
      <point x="210" y="273" type="line"/>
      <point x="210" y="294"/>
      <point x="222" y="318"/>
      <point x="241" y="327" type="curve" smooth="yes"/>
      <point x="265" y="338"/>
      <point x="304" y="333"/>
      <point x="314" y="325" type="curve"/>
      <point x="343" y="510" type="line"/>
      <point x="334" y="519"/>
      <point x="318" y="527"/>
      <point x="293" y="527" type="curve" smooth="yes"/>
      <point x="176" y="527"/>
      <point x="182" y="352"/>
      <point x="182" y="273" type="curve"/>
    </contour>
    <contour>
      <point x="185" y="521" type="move" name="top"/>
    </contour>
    <contour>
      <point x="132" y="0" type="move" name="bottom"/>
    </contour>
  </outline>
</glyph>
<glyph name="w" format="1">
  <advance width="653"/>
  <unicode hex="0077"/>
  <outline>
    <contour>
      <point x="296" y="0" type="line"/>
      <point x="323" y="211" type="line"/>
      <point x="352" y="0" type="line"/>
      <point x="533" y="0" type="line"/>
      <point x="645" y="518" type="line"/>
      <point x="467" y="520" type="line"/>
      <point x="440" y="256" type="line"/>
      <point x="408" y="520" type="line"/>
      <point x="247" y="520" type="line"/>
      <point x="217" y="256" type="line"/>
      <point x="189" y="520" type="line"/>
      <point x="8" y="520" type="line"/>
      <point x="122" y="0" type="line"/>
    </contour>
    <contour>
      <point x="326" y="520" type="move" name="top"/>
    </contour>
  </outline>
</glyph>
<glyph name="asciitilde" format="1">
  <advance width="509"/>
  <unicode hex="007E"/>
  <outline>
    <contour>
      <point x="404" y="182"/>
      <point x="462" y="251"/>
      <point x="491" y="317" type="curve"/>
      <point x="375" y="387" type="line"/>
      <point x="363" y="365"/>
      <point x="346" y="343"/>
      <point x="319" y="343" type="curve" smooth="yes"/>
      <point x="298" y="343"/>
      <point x="277" y="359"/>
      <point x="251" y="374" type="curve" smooth="yes"/>
      <point x="229" y="387"/>
      <point x="205" y="399"/>
      <point x="174" y="399" type="curve" smooth="yes"/>
      <point x="101" y="399"/>
      <point x="37" y="336"/>
      <point x="18" y="260" type="curve"/>
      <point x="127" y="194" type="line"/>
      <point x="139" y="216"/>
      <point x="166" y="238"/>
      <point x="192" y="238" type="curve" smooth="yes"/>
      <point x="215" y="238"/>
      <point x="235" y="221"/>
      <point x="262" y="205" type="curve" smooth="yes"/>
      <point x="282" y="193"/>
      <point x="304" y="182"/>
      <point x="333" y="182" type="curve" smooth="yes"/>
    </contour>
  </outline>
</glyph>
<glyph name="logicalnot" format="1">
  <advance width="436"/>
  <unicode hex="00AC"/>
  <outline>
    <contour>
      <point x="418" y="155" type="line"/>
      <point x="418" y="301" type="line"/>
      <point x="278" y="301" type="line"/>
      <point x="278" y="155" type="line"/>
    </contour>
    <component base="minus"/>
  </outline>
</glyph>
<glyph name="ordmasculine" format="1">
  <advance width="306"/>
  <unicode hex="00BA"/>
  <outline>
    <contour>
      <point x="239" y="355"/>
      <point x="289" y="397"/>
      <point x="289" y="471" type="curve" smooth="yes"/>
      <point x="289" y="487"/>
      <point x="289" y="515"/>
      <point x="289" y="531" type="curve" smooth="yes"/>
      <point x="289" y="547"/>
      <point x="289" y="576"/>
      <point x="289" y="592" type="curve" smooth="yes"/>
      <point x="289" y="661"/>
      <point x="239" y="708"/>
      <point x="152" y="708" type="curve" smooth="yes"/>
      <point x="64" y="708"/>
      <point x="14" y="661"/>
      <point x="14" y="592" type="curve" smooth="yes"/>
      <point x="14" y="576"/>
      <point x="14" y="547"/>
      <point x="14" y="531" type="curve" smooth="yes"/>
      <point x="14" y="515"/>
      <point x="14" y="487"/>
      <point x="14" y="471" type="curve" smooth="yes"/>
      <point x="14" y="397"/>
      <point x="64" y="355"/>
      <point x="152" y="355" type="curve" smooth="yes"/>
    </contour>
    <contour>
      <point x="140" y="456"/>
      <point x="132" y="466"/>
      <point x="132" y="480" type="curve" smooth="yes"/>
      <point x="132" y="497"/>
      <point x="132" y="514"/>
      <point x="132" y="531" type="curve"/>
      <point x="132" y="548"/>
      <point x="132" y="565"/>
      <point x="132" y="582" type="curve" smooth="yes"/>
      <point x="132" y="597"/>
      <point x="140" y="607"/>
      <point x="152" y="607" type="curve" smooth="yes"/>
      <point x="163" y="607"/>
      <point x="171" y="597"/>
      <point x="171" y="582" type="curve" smooth="yes"/>
      <point x="171" y="565"/>
      <point x="171" y="548"/>
      <point x="171" y="531" type="curve" smooth="yes"/>
      <point x="171" y="514"/>
      <point x="171" y="497"/>
      <point x="171" y="480" type="curve" smooth="yes"/>
      <point x="171" y="466"/>
      <point x="163" y="456"/>
      <point x="152" y="456" type="curve" smooth="yes"/>
    </contour>
    <component base="minus" xOffset="-4" yOffset="124" xScale="0.72" yScale="0.5"/>
  </outline>
</glyph>
<glyph name="thorn" format="1">
  <advance width="459"/>
  <unicode hex="00FE"/>
  <outline>
    <contour>
      <point x="208" y="-200" type="line"/>
      <point x="208" y="700" type="line"/>
      <point x="20" y="700" type="line"/>
      <point x="20" y="-200" type="line"/>
    </contour>
    <component base="b.bowl" xOffset="174"/>
  </outline>
</glyph>
<glyph name="florin" format="1">
  <advance width="483"/>
  <unicode hex="0192"/>
  <outline>
    <contour>
      <point x="205" y="-200"/>
      <point x="268" y="-174"/>
      <point x="287" y="-56" type="curve" smooth="yes"/>
      <point x="381" y="539" type="line" smooth="yes"/>
      <point x="384" y="557"/>
      <point x="399" y="572"/>
      <point x="424" y="575" type="curve"/>
      <point x="471" y="575" type="line"/>
      <point x="471" y="700" type="line"/>
      <point x="278" y="700"/>
      <point x="215" y="674"/>
      <point x="196" y="556" type="curve" smooth="yes"/>
      <point x="102" y="-39" type="line" smooth="yes"/>
      <point x="99" y="-57"/>
      <point x="83" y="-72"/>
      <point x="59" y="-75" type="curve"/>
      <point x="12" y="-75" type="line"/>
      <point x="12" y="-200" type="line"/>
    </contour>
    <contour>
      <point x="435" y="280" type="line"/>
      <point x="435" y="430" type="line"/>
      <point x="98" y="430" type="line"/>
      <point x="98" y="280" type="line"/>
    </contour>
  </outline>
</glyph>
<glyph name="caron" format="1">
  <advance width="354"/>
  <unicode hex="02C7"/>
  <outline>
    <contour>
      <point x="263" y="565" type="line"/>
      <point x="346" y="694" type="line"/>
      <point x="213" y="694" type="line"/>
      <point x="182" y="632" type="line"/>
      <point x="149" y="694" type="line"/>
      <point x="8" y="694" type="line"/>
      <point x="89" y="565" type="line"/>
    </contour>
    <contour>
      <point x="182" y="520" type="move" name="_top"/>
    </contour>
  </outline>
</glyph>
<glyph name="firsttonechinese" format="1">
  <advance width="231"/>
  <unicode hex="02C9"/>
  <outline>
    <contour>
      <point x="231" y="572" type="line"/>
      <point x="231" y="697" type="line"/>
      <point x="0" y="697" type="line"/>
      <point x="0" y="572" type="line"/>
    </contour>
    <contour>
      <point x="121" y="520" type="move" name="_top"/>
    </contour>
  </outline>
</glyph>
<glyph name="ringcomb" format="1">
  <advance width="234"/>
  <unicode hex="030A"/>
  <outline>
    <contour>
      <point x="183" y="554"/>
      <point x="234" y="605"/>
      <point x="234" y="671" type="curve" smooth="yes"/>
      <point x="234" y="736"/>
      <point x="183" y="787"/>
      <point x="117" y="787" type="curve" smooth="yes"/>
      <point x="51" y="787"/>
      <point x="0" y="736"/>
      <point x="0" y="671" type="curve" smooth="yes"/>
      <point x="0" y="605"/>
      <point x="51" y="554"/>
      <point x="117" y="554" type="curve" smooth="yes"/>
    </contour>
    <contour>
      <point x="97" y="635"/>
      <point x="81" y="651"/>
      <point x="81" y="671" type="curve" smooth="yes"/>
      <point x="81" y="692"/>
      <point x="97" y="708"/>
      <point x="117" y="708" type="curve" smooth="yes"/>
      <point x="137" y="708"/>
      <point x="153" y="692"/>
      <point x="153" y="671" type="curve" smooth="yes"/>
      <point x="153" y="651"/>
      <point x="137" y="635"/>
      <point x="117" y="635" type="curve" smooth="yes"/>
    </contour>
    <contour>
      <point x="117" y="520" type="move" name="_top"/>
    </contour>
  </outline>
</glyph>
<glyph name="slashshortcomb" format="1">
  <advance width="364"/>
  <unicode hex="0337"/>
  <outline>
    <contour>
      <point x="417" y="484" type="line"/>
      <point x="325" y="590" type="line"/>
      <point x="-100" y="217" type="line"/>
      <point x="-8" y="111" type="line"/>
    </contour>
  </outline>
</glyph>
<glyph name="slashlongcomb" format="1">
  <advance width="421"/>
  <unicode hex="0338"/>
  <outline>
    <contour>
      <point x="76" y="-30" type="line"/>
      <point x="421" y="730" type="line"/>
      <point x="344" y="730" type="line"/>
      <point x="0" y="-30" type="line"/>
    </contour>
  </outline>
</glyph>
<glyph name="uni20BD" format="1">
  <advance width="541"/>
  <unicode hex="20BD"/>
  <outline>
    <contour>
      <point x="272" y="0" type="line"/>
      <point x="272" y="539" type="line"/>
      <point x="291" y="539" type="line" smooth="yes"/>
      <point x="320" y="539"/>
      <point x="341" y="517"/>
      <point x="341" y="471" type="curve" smooth="yes"/>
      <point x="341" y="426"/>
      <point x="320" y="405"/>
      <point x="291" y="405" type="curve" smooth="yes"/>
      <point x="26" y="405" type="line"/>
      <point x="26" y="260" type="line"/>
      <point x="334" y="260" type="line" smooth="yes"/>
      <point x="450" y="260"/>
      <point x="529" y="345"/>
      <point x="529" y="475" type="curve" smooth="yes"/>
      <point x="529" y="608"/>
      <point x="446" y="700"/>
      <point x="324" y="700" type="curve" smooth="yes"/>
      <point x="84" y="700" type="line"/>
      <point x="84" y="0" type="line"/>
    </contour>
    <contour>
      <point x="27" y="119" type="line"/>
      <point x="439" y="119" type="line"/>
      <point x="439" y="220" type="line"/>
      <point x="27" y="220" type="line"/>
    </contour>
  </outline>
</glyph>
<glyph name="estimated" format="1">
  <advance width="785"/>
  <unicode hex="212E"/>
  <outline>
    <contour>
      <point x="688" y="209" type="line"/>
      <point x="637" y="107"/>
      <point x="513" y="33"/>
      <point x="392" y="33" type="curve" smooth="yes"/>
      <point x="201" y="33"/>
      <point x="62" y="165"/>
      <point x="62" y="347" type="curve" smooth="yes"/>
      <point x="62" y="533"/>
      <point x="201" y="667"/>
      <point x="392" y="667" type="curve" smooth="yes"/>
      <point x="583" y="667"/>
      <point x="722" y="533"/>
      <point x="722" y="347" type="curve" smooth="yes"/>
      <point x="722" y="346"/>
      <point x="722" y="344"/>
      <point x="722" y="343" type="curve"/>
      <point x="765" y="343" type="line"/>
      <point x="765" y="344"/>
      <point x="765" y="346"/>
      <point x="765" y="347" type="curve" smooth="yes"/>
      <point x="765" y="556"/>
      <point x="608" y="708"/>
      <point x="392" y="708" type="curve" smooth="yes"/>
      <point x="176" y="708"/>
      <point x="20" y="556"/>
      <point x="20" y="347" type="curve" smooth="yes"/>
      <point x="20" y="141"/>
      <point x="176" y="-8"/>
      <point x="392" y="-8" type="curve" smooth="yes"/>
      <point x="538" y="-8"/>
      <point x="682" y="83"/>
      <point x="736" y="209" type="curve"/>
    </contour>
    <contour>
      <point x="41" y="343" type="line"/>
      <point x="742" y="343" type="line"/>
      <point x="742" y="384" type="line"/>
      <point x="41" y="384" type="line"/>
    </contour>
    <contour>
      <point x="96" y="546"/>
      <point x="40" y="437"/>
      <point x="40" y="353" type="curve" smooth="yes"/>
      <point x="40" y="236"/>
      <point x="95" y="123"/>
      <point x="172" y="83" type="curve"/>
      <point x="173" y="614" type="line"/>
    </contour>
    <contour>
      <point x="744" y="444"/>
      <point x="689" y="555"/>
      <point x="612" y="616" type="curve"/>
      <point x="612" y="352" type="line"/>
      <point x="744" y="352" type="line"/>
    </contour>
  </outline>
</glyph>
<glyph name="summation" format="1">
  <advance width="495"/>
  <unicode hex="2211"/>
  <outline>
    <contour>
      <point x="477" y="-200" type="line"/>
      <point x="477" y="-39" type="line"/>
      <point x="197" y="-39" type="line"/>
      <point x="385" y="330" type="line"/>
      <point x="197" y="639" type="line"/>
      <point x="477" y="639" type="line"/>
      <point x="477" y="800" type="line"/>
      <point x="26" y="800" type="line"/>
      <point x="26" y="639" type="line"/>
      <point x="203" y="330" type="line"/>
      <point x="26" y="-39" type="line"/>
      <point x="26" y="-200" type="line"/>
    </contour>
  </outline>
</glyph>
<glyph name="integral" format="1">
  <advance width="342"/>
  <unicode hex="222B"/>
  <outline>
    <contour>
      <point x="206" y="-200"/>
      <point x="265" y="-174"/>
      <point x="265" y="-56" type="curve" smooth="yes"/>
      <point x="265" y="539" type="line" smooth="yes"/>
      <point x="265" y="557"/>
      <point x="278" y="572"/>
      <point x="303" y="575" type="curve"/>
      <point x="330" y="575" type="line"/>
      <point x="330" y="700" type="line"/>
      <point x="137" y="700"/>
      <point x="78" y="674"/>
      <point x="77" y="556" type="curve" smooth="yes"/>
      <point x="77" y="-39" type="line" smooth="yes"/>
      <point x="77" y="-57"/>
      <point x="63" y="-72"/>
      <point x="40" y="-75" type="curve"/>
      <point x="13" y="-75" type="line"/>
      <point x="12" y="-200" type="line"/>
    </contour>
  </outline>
</glyph>
<glyph name="at.alt" format="1">
  <advance width="762"/>
  <outline>
    <contour>
      <point x="589" y="-8"/>
      <point x="742" y="144"/>
      <point x="742" y="356" type="curve" smooth="yes"/>
      <point x="742" y="557"/>
      <point x="589" y="708"/>
      <point x="380" y="708" type="curve" smooth="yes"/>
      <point x="173" y="708"/>
      <point x="20" y="557"/>
      <point x="20" y="356" type="curve" smooth="yes"/>
      <point x="20" y="144"/>
      <point x="173" y="-8"/>
      <point x="380" y="-8" type="curve" smooth="yes"/>
    </contour>
    <contour>
      <point x="404" y="197"/>
      <point x="425" y="237"/>
      <point x="425" y="318" type="curve"/>
      <point x="425" y="387" type="line"/>
      <point x="378" y="387" type="line"/>
      <point x="304" y="387"/>
      <point x="255" y="377"/>
      <point x="255" y="291" type="curve" smooth="yes"/>
      <point x="255" y="206"/>
      <point x="301" y="197"/>
      <point x="342" y="197" type="curve" smooth="yes"/>
    </contour>
    <contour>
      <point x="375" y="276"/>
      <point x="368" y="281"/>
      <point x="368" y="292" type="curve" smooth="yes"/>
      <point x="368" y="302"/>
      <point x="375" y="311"/>
      <point x="387" y="311" type="curve"/>
      <point x="402" y="311" type="line"/>
      <point x="402" y="292" type="line" smooth="yes"/>
      <point x="402" y="282"/>
      <point x="391" y="276"/>
      <point x="383" y="276" type="curve" smooth="yes"/>
    </contour>
    <contour>
      <point x="231" y="92"/>
      <point x="122" y="201"/>
      <point x="122" y="356" type="curve" smooth="yes"/>
      <point x="122" y="500"/>
      <point x="231" y="608"/>
      <point x="380" y="608" type="curve" smooth="yes"/>
      <point x="530" y="608"/>
      <point x="640" y="500"/>
      <point x="640" y="356" type="curve" smooth="yes"/>
      <point x="640" y="201"/>
      <point x="530" y="92"/>
      <point x="380" y="92" type="curve" smooth="yes"/>
    </contour>
    <contour>
      <point x="513" y="202" type="line"/>
      <point x="513" y="414" type="line" smooth="yes"/>
      <point x="513" y="474"/>
      <point x="462" y="514"/>
      <point x="385" y="514" type="curve" smooth="yes"/>
      <point x="310" y="514"/>
      <point x="258" y="473"/>
      <point x="258" y="403" type="curve"/>
      <point x="370" y="401" type="line"/>
      <point x="370" y="411"/>
      <point x="376" y="419"/>
      <point x="385" y="419" type="curve" smooth="yes"/>
      <point x="395" y="419"/>
      <point x="402" y="411"/>
      <point x="402" y="401" type="curve" smooth="yes"/>
      <point x="402" y="202" type="line"/>
    </contour>
  </outline>
</glyph>
<glyph name="c.sc" format="1">
  <advance width="457"/>
  <outline>
    <contour>
      <point x="356" y="-7"/>
      <point x="442" y="66"/>
      <point x="442" y="190" type="curve" smooth="yes"/>
      <point x="442" y="204" type="line"/>
      <point x="254" y="211" type="line"/>
      <point x="254" y="174" type="line" smooth="yes"/>
      <point x="254" y="158"/>
      <point x="244" y="154"/>
      <point x="229" y="154" type="curve" smooth="yes"/>
      <point x="214" y="154"/>
      <point x="205" y="158"/>
      <point x="205" y="174" type="curve" smooth="yes"/>
      <point x="205" y="403" type="line" smooth="yes"/>
      <point x="205" y="419"/>
      <point x="214" y="424"/>
      <point x="229" y="424" type="curve" smooth="yes"/>
      <point x="244" y="424"/>
      <point x="254" y="419"/>
      <point x="254" y="403" type="curve" smooth="yes"/>
      <point x="254" y="368" type="line"/>
      <point x="442" y="375" type="line"/>
      <point x="442" y="389" type="line" smooth="yes"/>
      <point x="442" y="514"/>
      <point x="356" y="585"/>
      <point x="229" y="585" type="curve" smooth="yes"/>
      <point x="101" y="585"/>
      <point x="17" y="514"/>
      <point x="17" y="389" type="curve" smooth="yes"/>
      <point x="17" y="190" type="line" smooth="yes"/>
      <point x="17" y="66"/>
      <point x="101" y="-7"/>
      <point x="229" y="-7" type="curve" smooth="yes"/>
    </contour>
    <contour>
      <point x="229" y="585" type="move" name="top"/>
    </contour>
    <contour>
      <point x="229" y="-7" type="move" name="bottom"/>
    </contour>
  </outline>
</glyph>
<glyph name="d.sc" format="1">
  <advance width="460"/>
  <outline>
    <contour>
      <point x="226" y="0" type="line" smooth="yes"/>
      <point x="356" y="0"/>
      <point x="443" y="69"/>
      <point x="443" y="169" type="curve" smooth="yes"/>
      <point x="443" y="409" type="line" smooth="yes"/>
      <point x="443" y="509"/>
      <point x="356" y="578"/>
      <point x="226" y="578" type="curve" smooth="yes"/>
      <point x="21" y="578" type="line"/>
      <point x="21" y="0" type="line"/>
    </contour>
    <contour>
      <point x="209" y="417" type="line"/>
      <point x="221" y="417" type="line" smooth="yes"/>
      <point x="241" y="417"/>
      <point x="255" y="408"/>
      <point x="255" y="397" type="curve"/>
      <point x="255" y="183" type="line"/>
      <point x="253" y="172"/>
      <point x="239" y="163"/>
      <point x="222" y="162" type="curve" smooth="yes"/>
      <point x="209" y="161" type="line"/>
    </contour>
    <contour>
      <point x="223" y="582" type="move" name="top"/>
    </contour>
  </outline>
</glyph>
<glyph name="e.sc" format="1">
  <advance width="423"/>
  <outline>
    <contour>
      <point x="408" y="0" type="line"/>
      <point x="408" y="161" type="line"/>
      <point x="209" y="161" type="line"/>
      <point x="209" y="417" type="line"/>
      <point x="408" y="417" type="line"/>
      <point x="408" y="578" type="line"/>
      <point x="21" y="578" type="line"/>
      <point x="21" y="0" type="line"/>
    </contour>
    <contour>
      <point x="319" y="209" type="line"/>
      <point x="319" y="370" type="line"/>
      <point x="97" y="370" type="line"/>
      <point x="97" y="209" type="line"/>
    </contour>
    <contour>
      <point x="214" y="590" type="move" name="top"/>
    </contour>
    <contour>
      <point x="206" y="0" type="move" name="bottom"/>
    </contour>
  </outline>
</glyph>
<glyph name="eng.sc" format="1">
  <advance width="505"/>
  <outline>
    <contour>
      <point x="482" y="-199"/>
      <point x="484" y="-117"/>
      <point x="484" y="19" type="curve" smooth="yes"/>
      <point x="484" y="100" type="line"/>
      <point x="278" y="100" type="line"/>
      <point x="278" y="19" type="line" smooth="yes"/>
      <point x="278" y="-16"/>
      <point x="283" y="-38"/>
      <point x="215" y="-30" type="curve"/>
      <point x="216" y="-190" type="line"/>
    </contour>
    <component base="n.sc"/>
  </outline>
</glyph>
<glyph name="eth.sc" format="1">
  <advance width="479"/>
  <outline>
    <contour>
      <point x="253" y="251" type="line"/>
      <point x="253" y="354" type="line"/>
      <point x="21" y="354" type="line"/>
      <point x="21" y="251" type="line"/>
    </contour>
    <component base="d.sc" xOffset="19"/>
  </outline>
</glyph>
<glyph name="f_f_i.liga" format="1">
  <advance width="821"/>
  <outline>
    <contour>
      <point x="241" y="0" type="line"/>
      <point x="241" y="539" type="line" smooth="yes"/>
      <point x="241" y="557"/>
      <point x="254" y="572"/>
      <point x="278" y="575" type="curve"/>
      <point x="285" y="575" type="line"/>
      <point x="285" y="700" type="line"/>
      <point x="278" y="700" type="line"/>
      <point x="136" y="707"/>
      <point x="53" y="683"/>
      <point x="53" y="556" type="curve" smooth="yes"/>
      <point x="53" y="0" type="line"/>
    </contour>
    <contour>
      <point x="399" y="390" type="line"/>
      <point x="399" y="520" type="line"/>
      <point x="12" y="520" type="line"/>
      <point x="12" y="390" type="line"/>
    </contour>
    <contour>
      <point x="507" y="0" type="line"/>
      <point x="507" y="539" type="line" smooth="yes"/>
      <point x="507" y="557"/>
      <point x="520" y="572"/>
      <point x="544" y="575" type="curve"/>
      <point x="551" y="575" type="line"/>
      <point x="551" y="700" type="line"/>
      <point x="544" y="700" type="line"/>
      <point x="402" y="707"/>
      <point x="319" y="683"/>
      <point x="319" y="556" type="curve" smooth="yes"/>
      <point x="319" y="0" type="line"/>
    </contour>
    <contour>
      <point x="565" y="390" type="line"/>
      <point x="565" y="520" type="line"/>
      <point x="178" y="520" type="line"/>
      <point x="178" y="390" type="line"/>
    </contour>
    <contour>
      <point x="793" y="0" type="line"/>
      <point x="793" y="520" type="line"/>
      <point x="605" y="520" type="line"/>
      <point x="605" y="0" type="line"/>
    </contour>
    <contour>
      <point x="762" y="542"/>
      <point x="803" y="584"/>
      <point x="803" y="647" type="curve" smooth="yes"/>
      <point x="803" y="710"/>
      <point x="762" y="752"/>
      <point x="699" y="752" type="curve" smooth="yes"/>
      <point x="637" y="752"/>
      <point x="595" y="710"/>
      <point x="595" y="647" type="curve" smooth="yes"/>
      <point x="595" y="584"/>
      <point x="637" y="542"/>
      <point x="699" y="542" type="curve" smooth="yes"/>
    </contour>
  </outline>
</glyph>
<glyph name="f_f_l.liga" format="1">
  <advance width="812"/>
  <outline>
    <contour>
      <point x="241" y="0" type="line"/>
      <point x="241" y="539" type="line" smooth="yes"/>
      <point x="241" y="557"/>
      <point x="254" y="572"/>
      <point x="278" y="575" type="curve"/>
      <point x="285" y="575" type="line"/>
      <point x="285" y="700" type="line"/>
      <point x="278" y="700" type="line"/>
      <point x="136" y="707"/>
      <point x="53" y="683"/>
      <point x="53" y="556" type="curve" smooth="yes"/>
      <point x="53" y="0" type="line"/>
    </contour>
    <contour>
      <point x="399" y="390" type="line"/>
      <point x="399" y="520" type="line"/>
      <point x="12" y="520" type="line"/>
      <point x="12" y="390" type="line"/>
    </contour>
    <contour>
      <point x="514" y="0" type="line"/>
      <point x="514" y="539" type="line" smooth="yes"/>
      <point x="514" y="557"/>
      <point x="527" y="572"/>
      <point x="551" y="575" type="curve"/>
      <point x="558" y="575" type="line"/>
      <point x="558" y="700" type="line"/>
      <point x="551" y="700" type="line"/>
      <point x="409" y="707"/>
      <point x="326" y="683"/>
      <point x="326" y="556" type="curve" smooth="yes"/>
      <point x="326" y="0" type="line"/>
    </contour>
    <contour>
      <point x="572" y="390" type="line"/>
      <point x="572" y="520" type="line"/>
      <point x="185" y="520" type="line"/>
      <point x="185" y="390" type="line"/>
    </contour>
    <contour>
      <point x="792" y="0" type="line"/>
      <point x="792" y="700" type="line"/>
      <point x="604" y="700" type="line"/>
      <point x="604" y="0" type="line"/>
    </contour>
    <contour>
      <point x="700" y="700" type="move" name="top"/>
    </contour>
  </outline>
</glyph>
<glyph name="five.dnom" format="1">
  <advance width="276"/>
  <outline>
    <contour>
      <point x="217" y="-5"/>
      <point x="269" y="35"/>
      <point x="269" y="104" type="curve" smooth="yes"/>
      <point x="269" y="113"/>
      <point x="269" y="123"/>
      <point x="269" y="133" type="curve" smooth="yes"/>
      <point x="269" y="141"/>
      <point x="269" y="148"/>
      <point x="269" y="155" type="curve" smooth="yes"/>
      <point x="269" y="225"/>
      <point x="234" y="267"/>
      <point x="176" y="267" type="curve" smooth="yes"/>
      <point x="142" y="267"/>
      <point x="108" y="241"/>
      <point x="108" y="211" type="curve"/>
      <point x="125" y="206" type="line"/>
      <point x="125" y="319" type="line"/>
      <point x="268" y="319" type="line"/>
      <point x="268" y="420" type="line"/>
      <point x="7" y="420" type="line"/>
      <point x="7" y="153" type="line"/>
      <point x="125" y="153" type="line"/>
      <point x="125" y="160"/>
      <point x="130" y="165"/>
      <point x="138" y="165" type="curve" smooth="yes"/>
      <point x="146" y="165"/>
      <point x="151" y="159"/>
      <point x="151" y="149" type="curve" smooth="yes"/>
      <point x="151" y="144"/>
      <point x="151" y="139"/>
      <point x="151" y="134" type="curve" smooth="yes"/>
      <point x="151" y="126"/>
      <point x="151" y="119"/>
      <point x="151" y="112" type="curve" smooth="yes"/>
      <point x="151" y="102"/>
      <point x="146" y="96"/>
      <point x="138" y="96" type="curve" smooth="yes"/>
      <point x="133" y="96"/>
      <point x="126" y="99"/>
      <point x="126" y="109" type="curve" smooth="yes"/>
      <point x="126" y="112"/>
      <point x="126" y="117"/>
      <point x="126" y="123" type="curve"/>
      <point x="8" y="123" type="line"/>
      <point x="8" y="114"/>
      <point x="9" y="106"/>
      <point x="9" y="100" type="curve" smooth="yes"/>
      <point x="12" y="28"/>
      <point x="66" y="-5"/>
      <point x="138" y="-5" type="curve" smooth="yes"/>
    </contour>
  </outline>
</glyph>
<glyph name="g.sc" format="1">
  <advance width="457"/>
  <outline>
    <contour>
      <point x="356" y="-7"/>
      <point x="442" y="63"/>
      <point x="442" y="177" type="curve" smooth="yes"/>
      <point x="442" y="331" type="line"/>
      <point x="231" y="331" type="line"/>
      <point x="231" y="203" type="line"/>
      <point x="254" y="203" type="line"/>
      <point x="254" y="176" type="line" smooth="yes"/>
      <point x="254" y="161"/>
      <point x="244" y="154"/>
      <point x="229" y="154" type="curve" smooth="yes"/>
      <point x="214" y="154"/>
      <point x="205" y="161"/>
      <point x="205" y="176" type="curve" smooth="yes"/>
      <point x="205" y="402" type="line" smooth="yes"/>
      <point x="205" y="417"/>
      <point x="214" y="424"/>
      <point x="229" y="424" type="curve" smooth="yes"/>
      <point x="244" y="424"/>
      <point x="254" y="417"/>
      <point x="254" y="402" type="curve" smooth="yes"/>
      <point x="254" y="367" type="line"/>
      <point x="442" y="367" type="line"/>
      <point x="442" y="400" type="line" smooth="yes"/>
      <point x="442" y="515"/>
      <point x="356" y="585"/>
      <point x="229" y="585" type="curve" smooth="yes"/>
      <point x="101" y="585"/>
      <point x="17" y="516"/>
      <point x="17" y="402" type="curve" smooth="yes"/>
      <point x="17" y="177" type="line" smooth="yes"/>
      <point x="17" y="63"/>
      <point x="101" y="-7"/>
      <point x="229" y="-7" type="curve" smooth="yes"/>
    </contour>
    <contour>
      <point x="229" y="585" type="move" name="top"/>
    </contour>
    <contour>
      <point x="226" y="-7" type="move" name="bottom"/>
    </contour>
  </outline>
</glyph>
<glyph name="g_j.liga" format="1">
  <advance width="692"/>
  <outline>
    <contour>
      <point x="655" y="-210"/>
      <point x="670" y="-120"/>
      <point x="670" y="29" type="curve" smooth="yes"/>
      <point x="670" y="520" type="line"/>
      <point x="482" y="520" type="line"/>
      <point x="482" y="29" type="line" smooth="yes"/>
      <point x="482" y="-19"/>
      <point x="487" y="-49"/>
      <point x="446" y="-41" type="curve"/>
      <point x="426" y="-201" type="line"/>
    </contour>
    <contour>
      <point x="637" y="542"/>
      <point x="680" y="589"/>
      <point x="680" y="647" type="curve" smooth="yes"/>
      <point x="680" y="705"/>
      <point x="628" y="752"/>
      <point x="576" y="752" type="curve" smooth="yes"/>
      <point x="523" y="752"/>
      <point x="472" y="705"/>
      <point x="472" y="647" type="curve" smooth="yes"/>
      <point x="472" y="589"/>
      <point x="514" y="542"/>
      <point x="576" y="542" type="curve" smooth="yes"/>
    </contour>
    <component base="g"/>
  </outline>
</glyph>
<glyph name="k.sc" format="1">
  <advance width="496"/>
  <outline>
    <contour>
      <point x="209" y="0" type="line"/>
      <point x="209" y="133" type="line"/>
      <point x="227" y="169" type="line"/>
      <point x="293" y="0" type="line"/>
      <point x="491" y="0" type="line"/>
      <point x="358" y="327" type="line"/>
      <point x="490" y="578" type="line"/>
      <point x="292" y="578" type="line"/>
      <point x="209" y="414" type="line"/>
      <point x="209" y="578" type="line"/>
      <point x="21" y="578" type="line"/>
      <point x="21" y="0" type="line"/>
    </contour>
    <contour>
      <point x="264" y="0" type="move" name="bottom"/>
    </contour>
  </outline>
</glyph>
<glyph name="p.sc" format="1">
  <advance width="461"/>
  <outline>
    <contour>
      <point x="207" y="0" type="line"/>
      <point x="207" y="417" type="line"/>
      <point x="219" y="417" type="line" smooth="yes"/>
      <point x="244" y="417"/>
      <point x="263" y="407"/>
      <point x="263" y="379" type="curve" smooth="yes"/>
      <point x="263" y="352"/>
      <point x="244" y="343"/>
      <point x="219" y="343" type="curve" smooth="yes"/>
      <point x="191" y="343" type="line"/>
      <point x="191" y="199" type="line"/>
      <point x="262" y="199" type="line" smooth="yes"/>
      <point x="374" y="199"/>
      <point x="451" y="272"/>
      <point x="451" y="383" type="curve" smooth="yes"/>
      <point x="451" y="498"/>
      <point x="370" y="578"/>
      <point x="252" y="578" type="curve" smooth="yes"/>
      <point x="19" y="578" type="line"/>
      <point x="19" y="0" type="line"/>
    </contour>
  </outline>
</glyph>
<glyph name="q.sc" format="1">
  <advance width="454"/>
  <outline>
    <contour>
      <point x="354" y="-7"/>
      <point x="437" y="71"/>
      <point x="437" y="200" type="curve" smooth="yes"/>
      <point x="437" y="378" type="line" smooth="yes"/>
      <point x="437" y="507"/>
      <point x="354" y="585"/>
      <point x="226" y="585" type="curve" smooth="yes"/>
      <point x="100" y="585"/>
      <point x="17" y="507"/>
      <point x="17" y="378" type="curve" smooth="yes"/>
      <point x="17" y="200" type="line" smooth="yes"/>
      <point x="17" y="71"/>
      <point x="100" y="-7"/>
      <point x="226" y="-7" type="curve" smooth="yes"/>
    </contour>
    <contour>
      <point x="320" y="-63" type="line"/>
      <point x="320" y="116" type="line"/>
      <point x="132" y="116" type="line"/>
      <point x="132" y="-63" type="line"/>
    </contour>
    <contour>
      <point x="213" y="154"/>
      <point x="205" y="160"/>
      <point x="205" y="180" type="curve" smooth="yes"/>
      <point x="205" y="398" type="line" smooth="yes"/>
      <point x="205" y="418"/>
      <point x="213" y="424"/>
      <point x="226" y="424" type="curve" smooth="yes"/>
      <point x="240" y="424"/>
      <point x="249" y="418"/>
      <point x="249" y="398" type="curve" smooth="yes"/>
      <point x="249" y="180" type="line" smooth="yes"/>
      <point x="249" y="160"/>
      <point x="240" y="154"/>
      <point x="226" y="154" type="curve" smooth="yes"/>
    </contour>
  </outline>
</glyph>
<glyph name="thorn.sc" format="1">
  <advance width="460"/>
  <outline>
    <contour>
      <point x="207" y="0" type="line"/>
      <point x="207" y="578" type="line"/>
      <point x="19" y="578" type="line"/>
      <point x="19" y="0" type="line"/>
    </contour>
    <contour>
      <point x="261" y="98" type="line" smooth="yes"/>
      <point x="373" y="98"/>
      <point x="450" y="172"/>
      <point x="450" y="285" type="curve" smooth="yes"/>
      <point x="450" y="399"/>
      <point x="369" y="479"/>
      <point x="251" y="479" type="curve" smooth="yes"/>
      <point x="207" y="479" type="line"/>
      <point x="207" y="318" type="line"/>
      <point x="218" y="318" type="line" smooth="yes"/>
      <point x="243" y="318"/>
      <point x="262" y="308"/>
      <point x="262" y="281" type="curve" smooth="yes"/>
      <point x="262" y="253"/>
      <point x="243" y="245"/>
      <point x="218" y="245" type="curve" smooth="yes"/>
      <point x="207" y="245" type="line"/>
      <point x="207" y="98" type="line"/>
    </contour>
  </outline>
</glyph>
<glyph name="u.sc" format="1">
  <advance width="456"/>
  <outline>
    <contour>
      <point x="355" y="-7"/>
      <point x="437" y="67"/>
      <point x="437" y="188" type="curve" smooth="yes"/>
      <point x="437" y="578" type="line"/>
      <point x="249" y="578" type="line"/>
      <point x="249" y="175" type="line" smooth="yes"/>
      <point x="249" y="161"/>
      <point x="242" y="154"/>
      <point x="229" y="154" type="curve" smooth="yes"/>
      <point x="215" y="154"/>
      <point x="207" y="161"/>
      <point x="207" y="175" type="curve" smooth="yes"/>
      <point x="207" y="578" type="line"/>
      <point x="19" y="578" type="line"/>
      <point x="19" y="188" type="line" smooth="yes"/>
      <point x="19" y="67"/>
      <point x="102" y="-7"/>
      <point x="229" y="-7" type="curve" smooth="yes"/>
    </contour>
    <contour>
      <point x="229" y="590" type="move" name="top"/>
    </contour>
    <contour>
      <point x="229" y="0" type="move" name="bottom"/>
    </contour>
  </outline>
</glyph>
<glyph name="v.sc" format="1">
  <advance width="502"/>
  <outline>
    <contour>
      <point x="342" y="0" type="line"/>
      <point x="492" y="578" type="line"/>
      <point x="294" y="578" type="line"/>
      <point x="256" y="284" type="line"/>
      <point x="213" y="578" type="line"/>
      <point x="10" y="578" type="line"/>
      <point x="158" y="0" type="line"/>
    </contour>
  </outline>
</glyph>
<glyph name="x.sc" format="1">
  <advance width="484"/>
  <outline>
    <contour>
      <point x="201" y="0" type="line"/>
      <point x="243" y="101" type="line"/>
      <point x="284" y="0" type="line"/>
      <point x="474" y="0" type="line"/>
      <point x="342" y="289" type="line"/>
      <point x="474" y="578" type="line"/>
      <point x="283" y="578" type="line"/>
      <point x="243" y="477" type="line"/>
      <point x="202" y="578" type="line"/>
      <point x="10" y="578" type="line"/>
      <point x="142" y="289" type="line"/>
      <point x="10" y="0" type="line"/>
    </contour>
  </outline>
</glyph>
